<svg
   xmlns:dc="http://purl.org/dc/elements/1.1/"
   xmlns:cc="http://creativecommons.org/ns#"
   xmlns:rdf="http://www.w3.org/1999/02/22-rdf-syntax-ns#"
   xmlns:svg="http://www.w3.org/2000/svg"
   xmlns="http://www.w3.org/2000/svg"
   xmlns:sodipodi="http://sodipodi.sourceforge.net/DTD/sodipodi-0.dtd"
   xmlns:inkscape="http://www.inkscape.org/namespaces/inkscape"
   width="744.09448819"
   height="1052.3622047"
   id="svg2"
   version="1.1"
   inkscape:version="0.48.1 r9760"
   sodipodi:docname="Salt Lake Temple Silhouette.svg">
  <defs
     id="defs4" />
  <sodipodi:namedview
     id="base"
     pagecolor="#ffffff"
     bordercolor="#666666"
     borderopacity="1.0"
     inkscape:pageopacity="0.0"
     inkscape:pageshadow="2"
     inkscape:zoom="0.86377106"
     inkscape:cx="372.04724"
     inkscape:cy="526.18109"
     inkscape:document-units="px"
     inkscape:current-layer="layer2"
     showgrid="false"
     inkscape:window-width="1837"
     inkscape:window-height="1109"
     inkscape:window-x="-4"
     inkscape:window-y="-3"
     inkscape:window-maximized="1"
     showguides="true"
     inkscape:guide-bbox="true" />
  <metadata
     id="metadata7">
    <rdf:RDF>
      <cc:Work
         rdf:about="">
        <dc:format>image/svg+xml</dc:format>
        <dc:type
           rdf:resource="http://purl.org/dc/dcmitype/StillImage" />
        <dc:title />
      </cc:Work>
    </rdf:RDF>
  </metadata>
  <g
     inkscape:label="Layer 1"
     inkscape:groupmode="layer"
     id="layer1"
     style="display:inline" />
  <g
     inkscape:groupmode="layer"
     id="layer2"
     inkscape:label="Layer"
     style="display:inline">
    <path
       style="fill:#ffff8d;fill-opacity:1;stroke:none"
       d="m 354.27947,-0.16746996 -2.42445,4.22547396 3.74058,0.9697809 3.53277,2.9093427 -0.96978,7.4118974 -0.41562,3.324963 c 0,0 -0.13344,0.795996 0,1.177591 0.12568,0.358963 0.62343,0.761971 0.62343,0.761971 l 4.77964,4.571823 0,22.58204 2.14737,0.484891 1.24686,14.823793 3.25569,0 0,5.333795 c -4.70323,1.036413 -8.24314,5.16799 -8.24314,10.1827 0,3.818454 2.07611,7.170393 5.12599,9.005108 l -2.56299,0 -25.21431,168.53407 0,12.39934 -2.84007,0 0,-11.91445 -2.63226,0 -4.01767,-20.22686 c 0.75963,-0.30565 1.31614,-1.03599 1.31614,-1.87029 0,-1.11242 -0.97861,-2.00883 -2.14738,-2.00883 -1.16876,0 -2.14737,0.89641 -2.14737,2.00883 0,0.84813 0.60557,1.57355 1.3854,1.87029 l -4.08693,20.22686 -2.56299,0 0,14.47744 1.17759,0 0,62.89722 -1.66248,0 0,-8.45095 -3.11716,0 -4.64109,-26.18408 c 1.03945,-0.41846 1.80102,-1.42145 1.80102,-2.563 0,-1.52223 -1.30988,-2.7708 -2.90934,-2.7708 -1.59944,0 -2.90934,1.24857 -2.90934,2.7708 0,1.16057 0.73386,2.15675 1.80102,2.563 l -4.6411,26.18408 -3.11715,0 0,17.17898 1.73175,0 0,53.19941 -3.87912,0 0,-10.94467 -3.60204,0 -5.47234,-27.22314 c 1.07926,-0.43444 1.93956,-1.44691 1.93956,-2.63226 0,-1.58051 -1.38719,-2.84007 -3.04788,-2.84007 -1.66069,0 -3.04788,1.25956 -3.04788,2.84007 0,1.20505 0.83155,2.21037 1.93956,2.63226 l -5.47234,27.22314 -3.60204,0 0,20.43466 1.93956,0 0,166.24816 -18.14876,0 0,-10.04416 -16.55554,0 0,16.417 -13.16132,0 0,-9.14365 -16.48627,0 0,15.5165 -18.14876,0 0,-152.2556 1.59321,0 0,-16.48628 -2.90934,0 -4.43328,-21.95861 c 0.89556,-0.34098 1.52394,-1.17338 1.52394,-2.14737 0,-1.27745 -1.08217,-2.35518 -2.42445,-2.35518 -1.34227,0 -2.42446,1.07773 -2.42446,2.35518 0,0.95808 0.65163,1.79624 1.52394,2.14737 l -4.43328,21.95861 -2.90934,0 0,8.86657 -3.11715,0 0,-43.01671 1.3854,0 0,-13.85401 -2.49373,0 -3.80985,-21.19664 c 0.86252,-0.32835 1.52394,-1.14009 1.52394,-2.0781 0,-1.23037 -1.06241,-2.21664 -2.35518,-2.21664 -1.29277,0 -2.35518,0.98627 -2.35518,2.21664 0,0.92265 0.61452,1.73986 1.45467,2.0781 l -3.74058,21.19664 -2.563,0 0,6.78847 -1.31613,0 0,-50.84423 0.96978,0 0,-11.63737 -2.14737,0 -3.25569,-16.34774 c 0.6303,-0.23984 1.10832,-0.83844 1.10832,-1.52394 0,-0.89916 -0.78706,-1.66248 -1.73175,-1.66248 -0.94467,0 -1.73175,0.76332 -1.73175,1.66248 0,0.67433 0.49435,1.2769 1.10832,1.52394 l -3.2557,16.34774 -2.14737,0 0,9.55927 -2.35518,0 0,-9.97489 -20.3654,-136.25422 -2.21664,0 c 2.4231,-1.37086 4.08694,-3.84182 4.08694,-6.7192 0,-3.77791 -2.7791,-7.00075 -6.51139,-7.75825 l 0,-7.41189 c 1.68622,-0.65283 2.84007,-2.17841 2.84007,-4.01767 0,-1.83926 -1.15385,-3.36484 -2.84007,-4.01766 l 0,-6.99628 -3.4635,0 0,6.99628 c -1.68833,0.65189 -2.90935,2.17696 -2.90935,4.01766 0,1.8407 1.22102,3.36577 2.90935,4.01767 l 0,7.41189 c -3.73347,0.75663 -6.58066,3.97954 -6.58066,7.75825 0,2.87738 1.66386,5.34834 4.08693,6.7192 l -2.21664,0 -20.3654,136.25422 0,9.97489 -2.355179,0 0,-9.55927 -2.078102,0 -3.255693,-16.34774 c 0.613987,-0.24704 1.039051,-0.84961 1.039051,-1.52394 0,-0.89916 -0.787086,-1.66248 -1.731752,-1.66248 -0.944666,0 -1.662481,0.76332 -1.662481,1.66248 0,0.6855 0.408748,1.2841 1.039051,1.52394 l -3.255693,16.34774 -2.078102,0 0,11.63737 0.90051,0 0,50.84423 -1.316131,0 0,-6.78847 -2.493722,0 -3.809854,-21.19664 c 0.84013,-0.33824 1.523942,-1.15545 1.523942,-2.0781 0,-1.23037 -1.062414,-2.21664 -2.355181,-2.21664 -1.292768,0 -2.355183,0.98627 -2.355183,2.21664 0,0.93801 0.592132,1.74975 1.454672,2.0781 l -3.740584,21.19664 -2.493722,0 0,13.85401 1.316131,0 0,43.01671 -3.117153,0 0,-8.86657 -2.909342,0 -4.364014,-21.95861 c 0.872315,-0.35113 1.523941,-1.18929 1.523941,-2.14737 0,-1.27745 -1.151457,-2.35518 -2.493722,-2.35518 -1.342265,0 -2.424452,1.07773 -2.424452,2.35518 0,0.97399 0.628396,1.80639 1.523941,2.14737 l -4.433284,21.95861 -2.840073,0 0,16.48628 1.523942,0 0,620.3827 634.305968,0 0,-620.3827 1.52395,0 0,-16.48628 -2.84008,0 -4.43328,-21.95861 c 0.89557,-0.34098 1.52394,-1.17338 1.52394,-2.14737 0,-1.27745 -1.08216,-2.35518 -2.42445,-2.35518 -1.34227,0 -2.42445,1.07773 -2.42445,2.35518 0,0.95808 0.65162,1.79624 1.52394,2.14737 l -4.43329,21.95861 -2.90934,0 0,8.86657 -3.11715,0 0,-43.01671 1.3854,0 0,-13.85401 -2.56299,0 -3.74059,-21.19664 c 0.86252,-0.32835 1.52394,-1.14009 1.52394,-2.0781 0,-1.23037 -1.06241,-2.21664 -2.35518,-2.21664 -1.29277,0 -2.35518,0.98627 -2.35518,2.21664 0,0.92265 0.61452,1.73986 1.45467,2.0781 l -3.74058,21.19664 -2.56299,0 0,6.78847 -1.31614,0 0,-50.84423 0.96979,0 0,-11.63737 -2.14738,0 -3.25569,-16.34774 c 0.6303,-0.23984 1.10832,-0.83844 1.10832,-1.52394 0,-0.89916 -0.78706,-1.66248 -1.73175,-1.66248 -0.94467,0 -1.73175,0.76332 -1.73175,1.66248 0,0.67433 0.49435,1.2769 1.10832,1.52394 l -3.32496,16.34774 -2.07811,0 0,9.55927 -2.35518,0 0,-9.97489 -20.3654,-136.25422 -2.21664,0 c 2.4231,-1.37086 4.08694,-3.84182 4.08694,-6.7192 0,-3.77791 -2.7791,-7.00075 -6.51139,-7.75825 l 0,-7.41189 c 1.65523,-0.66628 2.84007,-2.19969 2.84007,-4.01767 0,-1.81798 -1.18484,-3.35138 -2.84007,-4.01766 l 0,-6.99628 -3.4635,0 0,6.99628 c -1.68833,0.65189 -2.90935,2.17696 -2.90935,4.01766 0,1.8407 1.22102,3.36577 2.90935,4.01767 l 0,7.41189 c -3.73347,0.75663 -6.58066,3.97954 -6.58066,7.75825 0,2.87738 1.66386,5.34834 4.08693,6.7192 l -2.21664,0 -20.3654,136.25422 0,9.97489 -2.35518,0 0,-9.55927 -2.0781,0 -3.25569,-16.34774 c 0.61398,-0.24704 1.03905,-0.84961 1.03905,-1.52394 0,-0.89916 -0.78709,-1.66248 -1.73175,-1.66248 -0.94467,0 -1.66249,0.76332 -1.66249,1.66248 0,0.6855 0.40875,1.2841 1.03905,1.52394 l -3.25569,16.34774 -2.0781,0 0,11.63737 0.90051,0 0,50.84423 -1.31613,0 0,-6.78847 -2.49372,0 -3.80986,-21.19664 c 0.84013,-0.33824 1.52395,-1.15545 1.52395,-2.0781 0,-1.23037 -1.06242,-2.21664 -2.35519,-2.21664 -1.29276,0 -2.35518,0.98627 -2.35518,2.21664 0,0.93801 0.59213,1.74975 1.45467,2.0781 l -3.74058,21.19664 -2.56299,0 0,13.85401 1.3854,0 0,43.01671 -3.11716,0 0,-8.86657 -2.90934,0 -4.36401,-21.95861 c 0.87231,-0.35113 1.52394,-1.18929 1.52394,-2.14737 0,-1.27745 -1.15146,-2.35518 -2.49372,-2.35518 -1.34227,0 -2.42445,1.07773 -2.42445,2.35518 0,0.97399 0.62839,1.80639 1.52394,2.14737 l -4.43329,21.95861 -2.84007,0 0,16.48628 1.52394,0 0,152.2556 -18.07949,0 0,-15.5165 -16.55554,0 0,9.14365 -13.16131,0 0,-16.417 -16.55555,0 0,10.04416 -18.14875,0 0,-166.24816 1.93956,0 0,-20.43466 -3.60205,0 -5.40306,-27.22314 c 1.10803,-0.42189 1.87029,-1.42721 1.87029,-2.63226 0,-1.58051 -1.38717,-2.84007 -3.04788,-2.84007 -1.66069,0 -2.97861,1.25956 -2.97861,2.84007 0,1.18535 0.79105,2.19782 1.87029,2.63226 l -5.47234,27.22314 -3.53277,0 0,10.94467 -3.94839,0 0,-53.19941 1.73175,0 0,-17.17898 -3.11716,0 -4.64109,-26.18408 c 1.06716,-0.40625 1.80102,-1.40243 1.80102,-2.563 0,-1.52223 -1.30988,-2.7708 -2.90934,-2.7708 -1.59946,0 -2.90934,1.24857 -2.90934,2.7708 0,1.14155 0.83084,2.14454 1.87029,2.563 l -4.6411,26.18408 -3.11715,0 0,8.45095 -1.73175,0 0,-62.89722 1.24686,0 0,-14.47744 -2.63226,0 -4.01767,-20.22686 c 0.77984,-0.29674 1.31614,-1.02216 1.31614,-1.87029 0,-1.11242 -0.97859,-2.00883 -2.14738,-2.00883 -1.16877,0 -2.14737,0.89641 -2.14737,2.00883 0,0.8343 0.62578,1.56464 1.3854,1.87029 l -4.08693,20.22686 -2.56299,0 0,11.91445 -2.90935,0 0,-12.39934 -25.2143,-168.53407 -2.56299,0 c 3.04988,-1.834715 5.12598,-5.186654 5.12598,-9.005108 0,-5.01471 -3.53991,-9.146287 -8.24313,-10.1827 l 0,-5.957225 2.56299,-1.939562 0,-11.637371 1.93956,-1.246861 -0.13854,-16.139925 5.88796,12.399342 c 0,0 0.7437,-1.048893 0.90051,-1.593212 0.25132,-0.872404 -0.2077,-2.424452 -0.2077,-2.424452 0,0 -2.78624,-10.302905 -4.77964,-15.239414 -0.21265,-0.526624 -0.39302,-1.092165 -0.76197,-1.523941 -0.25807,-0.302014 -0.59148,-0.571467 -0.96978,-0.6927 -1.20937,-0.38756 -3.80985,0 -3.80985,0 0,0 0.0446,-4.684629 -0.41562,-6.996276 -0.15672,-0.786886 -0.6927,-2.355182 -0.6927,-2.355182 0,0 -0.448,-1.310066 -1.03905,-1.731752 -0.59105,-0.421686 -1.46155,-0.459465 -2.28592,-0.48489 -0.77677,-0.02394 -1.57476,0.122695 -2.0781,0.41562 -0.50334,0.292925 -0.68906,0.632422 -0.90051,1.039051 -0.17569,0.337859 -0.27708,1.108321 -0.27708,1.108321 L 356.84257,3.7116537 354.27958,-0.16746996 z M 375.68392,483.40685 c 11.56289,0 20.91956,9.35657 20.91956,20.91955 0,0.16337 0,0.32242 0,0.4849 l 0,90.53597 -41.83912,0 0,-90.53597 c -0.004,-0.16248 0,-0.32153 0,-0.4849 0,-11.56298 9.35644,-20.91955 20.91956,-20.91955 z M 128.2587,537.16041 c 8.7437,0 15.79357,7.11837 15.79357,15.86285 0,0.12347 0.005,0.22366 0,0.34635 l 0,47.44999 -31.65642,0 0,-47.44999 c 0,-0.1228 0,-0.22288 0,-0.34635 0,-8.74448 7.11806,-15.86285 15.86285,-15.86285 z m 487.64635,0 c 8.74399,0 15.79357,7.11837 15.79357,15.86285 0,0.12347 -0.005,0.22366 0,0.34635 l 0,47.44999 -31.65641,0 0,-47.44999 c 0,-0.1228 0,-0.22288 0,-0.34635 0,-8.74448 7.11819,-15.86285 15.86284,-15.86285 z M 375.68392,638.01763 c 11.56289,0 20.91956,9.3566 20.91956,20.91956 0,0.16336 0,0.32241 0,0.48489 l 0,134.31465 -41.83912,0 0,-134.31465 c -0.004,-0.16248 0,-0.32153 0,-0.48489 0,-11.56296 9.35644,-20.91956 20.91956,-20.91956 z m -247.42522,3.04788 c 8.7437,0 15.79357,7.04908 15.79357,15.79357 0,0.12347 0,0.22355 0,0.34635 l 0,47.45 -31.65642,0 0,-47.45 c 0,-0.1228 0,-0.22288 0,-0.34635 0,-8.74449 7.11806,-15.79357 15.86285,-15.79357 z m 487.64635,0 c 8.74399,0 15.79357,7.04908 15.79357,15.79357 0,0.12347 -0.005,0.22366 0,0.34635 l 0,47.45 -31.65641,0 0,-47.45 c 0,-0.1228 0,-0.22288 0,-0.34635 0,-8.74449 7.11819,-15.79357 15.86284,-15.79357 z m -375.29776,6.78847 c 10.38709,0 18.77219,9.14735 18.77219,20.36539 0,11.21805 -8.3851,20.29613 -18.77219,20.29613 -10.3871,0 -18.84146,-9.07808 -18.84146,-20.29613 0,-11.21804 8.45436,-20.36539 18.84146,-20.36539 z m 262.87989,0 c 10.3871,0 18.84146,9.14735 18.84146,20.36539 0,11.21805 -8.45436,20.29613 -18.84146,20.29613 -10.38709,0 -18.77218,-9.07808 -18.77218,-20.29613 0,-11.21804 8.38509,-20.36539 18.77218,-20.36539 z M 128.2587,732.36345 c 8.7437,0 15.79357,7.04917 15.79357,15.79358 0,0.12347 0,0.29282 0,0.41562 l 0,49.94371 -31.65642,0 0,-49.94371 c 0,-0.1228 0,-0.29193 0,-0.41562 0,-8.74441 7.11806,-15.79358 15.86285,-15.79358 z m 112.34859,0 c 8.74372,0 15.79357,7.04917 15.79357,15.79358 0,0.12347 0,0.29282 0,0.41562 l 0,49.94371 -31.65642,0 0,-49.94371 0.0693,0 c 0,-0.1228 -0.0693,-0.29193 -0.0693,-0.41562 0,-8.74441 7.11809,-15.79358 15.86285,-15.79358 z m 262.87989,0 c 8.74373,0 15.86285,7.04917 15.86285,15.79358 0,0.12347 -0.0692,0.29282 -0.0692,0.41562 l 0.0692,0 0,49.94371 -31.65642,0 0,-49.94371 c 0,-0.1228 0,-0.29193 0,-0.41562 0,-8.74441 7.04883,-15.79358 15.79357,-15.79358 z m 112.41787,0 c 8.74399,0 15.79357,7.04917 15.79357,15.79358 0,0.12347 -0.005,0.29292 0,0.41562 l 0,49.94371 -31.65641,0 0,-49.94371 c 0,-0.1228 0,-0.29193 0,-0.41562 0,-8.74441 7.11819,-15.79358 15.86284,-15.79358 z M 128.2587,831.69672 c 8.7437,0 15.79357,7.04917 15.79357,15.79358 0,0.12369 0,0.22355 0,0.34635 l 0,52.71452 -31.65642,0 0,-52.71452 c 0,-0.1228 0,-0.222 0,-0.34635 0,-8.74441 7.11806,-15.79358 15.86285,-15.79358 z m 487.64635,0 c 8.74399,0 15.79357,7.04917 15.79357,15.79358 0,0.12369 -0.005,0.22364 0,0.34635 l 0,52.71452 -31.65641,0 0,-52.71452 c 0,-0.1228 0,-0.222 0,-0.34635 0,-8.74441 7.11819,-15.79358 15.86284,-15.79358 z m -375.29776,6.09577 c 10.38709,0 18.77219,9.07808 18.77219,20.29613 0,11.21807 -8.3851,20.29613 -18.77219,20.29613 -10.3871,0 -18.84146,-9.07806 -18.84146,-20.29613 0,-11.21805 8.45436,-20.29613 18.84146,-20.29613 z m 262.87989,0 c 10.3871,0 18.84146,9.07808 18.84146,20.29613 0,11.21807 -8.45436,20.29613 -18.84146,20.29613 -10.38709,0 -18.77218,-9.07806 -18.77218,-20.29613 0,-11.21805 8.38509,-20.29613 18.77218,-20.29613 z m -127.80326,4.50255 c 11.56289,0 20.91956,9.35649 20.91956,20.91956 0,0.16337 0,0.32241 0,0.48489 l 0,134.31466 -41.83912,0 0,-134.31466 c -0.004,-0.16248 0,-0.32152 0,-0.48489 0,-11.56307 9.35644,-20.91956 20.91956,-20.91956 z m -136.87765,69.96277 c 13.61291,0 24.59087,10.97794 24.59087,24.59087 0,0.092 0.001,0.18531 0,0.27708 l 0,60.88839 -49.25102,0 0,-60.88839 c -9.9e-4,-0.0915 0,-0.18531 0,-0.27708 0,-13.61293 11.04722,-24.59087 24.66015,-24.59087 z m 266.55121,0 c 13.6129,0 24.59087,10.97794 24.59087,24.59087 0,0.092 10e-4,0.18531 0,0.27708 l 0,60.88839 -49.25102,0 0,-60.88839 c -9.9e-4,-0.0915 0,-0.18531 0,-0.27708 0,-13.61293 11.04721,-24.59087 24.66015,-24.59087 z M 128.2587,929.1597 c 8.7437,0 15.79357,7.04919 15.79357,15.79358 0,0.12347 0.005,0.29268 0,0.41562 l 0,52.64525 -31.65642,0 0,-52.64525 c 0,-0.1228 0,-0.2926 0,-0.41562 0,-8.74439 7.11806,-15.79358 15.86285,-15.79358 z m 487.64635,0 c 8.74399,0 15.79357,7.04919 15.79357,15.79358 0,0.12347 0,0.29259 0,0.41562 l 0,52.64525 -31.65641,0 0,-52.64525 c 0,-0.1228 0,-0.2926 0,-0.41562 0,-8.74439 7.11819,-15.79358 15.86284,-15.79358 z"
       id="path5887"
       inkscape:connector-curvature="0"
       sodipodi:nodetypes="ccccccccccccccsccccccccsssccccccccccsssccccccccccsssccccccccccccccccccccsssccccccccccsssccccccccccsssccccccccsccsccccsccsccccccccsssccccccccccsssccccccccccsssccccccccccccsssccccccccccsssccccccccccsssccccccccsccsccccsccsccccccccsssccccccccccsssccccccccccsssccccccccccccccccccccsssccccccccccsssccccccccccsssccccccccscccccccscsssccczccsccccssscccsssssccssssssccsssssscccsssssccssssssccssssssssssssssssccssssssccccssssccccssssssccssssssccssssssccsssssssssssssssscccssssccccssssccccsssssccssssssccsss" />
    <g
       id="g6449"
       transform="translate(3.633185,0)"
       style="fill:#ffffff" />
    <g
       id="g6476"
       transform="translate(-0.64071355,0)"
       style="fill:#ffffff" />
    <g
       id="g6491"
       transform="translate(0.49558,-22)"
       style="fill:#ffffff" />
  </g>
</svg>